<svg xmlns="http://www.w3.org/2000/svg" width="48" height="48" viewBox="0 0 48 48">
  <rect width="48" height="48" rx="11" fill="#0E0A08"/>
  <rect x="1.5" y="1.5" width="45" height="45" rx="9.5" fill="none" stroke="#E5202A" stroke-width="2"/>
  <g transform="translate(12 8)">
    <path d="M12 31C5 28.2 1.6 21.2 5.4 13.4C6.7 16 9 16.3 9 12.9C9 6.9 12.6 2.4 16.2 1C14.5 6.1 17.7 8.6 17 13.6C18.7 12.5 19.5 10.7 19.7 8.8C23 13.9 21.7 26.2 12 31Z" fill="#E5202A"/>
    <path d="M12 27.6C8.4 25.7 6.9 21.4 9 17C9.7 18.8 11.1 19.3 11.6 16.8C12.5 19.5 14.5 20.5 14.3 23.9C15.8 22.7 16.1 21.1 16.1 21.1C17.7 24.7 16 29.5 12 27.6Z" fill="#FFD45A"/>
  </g>
</svg>
